<svg xmlns="http://www.w3.org/2000/svg" width="1174" height="397" viewBox="0 0 1174 397" fill="none">
<path d="M30 70.5L64.5 40.5H1160V332L1128.5 365L1099.5 396.5H0V99L30 70.5Z" fill="#FFF3DF"/>



<path fill-rule="evenodd" clip-rule="evenodd" d="M1130.66 23.5117H1131.29C1131.41 23.7495 1131.45 24.017 1131.7 24.1517C1132.93 24.186 1132.54 24.092 1133.96 25.5131H1136.83C1137.26 25.707 1137.38 26.3067 1137.94 26.2082C1138.34 26.7591 1139.33 26.7607 1139.33 27.7043C1139.33 27.8385 1139.58 27.9706 1139.72 28.1036C1139.5 28.7112 1138.99 29.0827 1138.56 29.5392C1138.42 29.7662 1137.96 29.3689 1137.95 29.7914C1137.93 30.2002 1137.53 29.9774 1137.39 30.2185C1137.29 30.3866 1136.96 30.4206 1136.73 30.5167C1136.64 30.4376 1136.56 30.3655 1136.48 30.2959C1136.37 30.7155 1135.97 30.7801 1135.67 30.9504C1135.45 30.9818 1135.42 30.6443 1135.08 30.7834C1134.94 30.9533 1134.73 31.2138 1134.53 31.4685C1134.3 31.2854 1134.17 31.0742 1133.98 31.1877C1133.5 31.483 1133.04 31.8152 1132.57 32.1387C1132.11 32.456 1131.43 32.6515 1130.87 32.5794C1130.43 32.5227 1130.11 33.0462 1129.6 32.6316V33.5246C1129.35 33.7847 1128.94 33.5097 1128.75 33.9976C1128.65 33.3117 1127.78 33.6762 1127.7 33.0247C1127.34 33.1933 1126.98 33.4352 1126.69 32.9012C1126.62 32.7844 1126.79 32.7708 1126.82 32.6718C1126.81 32.4518 1126.63 32.5662 1126.51 32.5231C1126.28 32.2932 1126.38 31.8372 1126.87 30.9433C1125.81 30.2736 1125.37 29.0968 1124.69 28.1682C1124.74 27.4259 1125.18 26.9633 1125.83 26.6779C1126.02 26.5938 1126.25 26.5996 1126.45 26.5449C1127 26.3991 1127.53 26.187 1128.12 26.1978C1129.18 26.2173 1129.47 25.9505 1129.81 24.937C1129.97 24.437 1130.01 23.8605 1130.66 23.5117Z" fill="#FAB133"/>
<path fill-rule="evenodd" clip-rule="evenodd" d="M1160.73 65.6153C1160.1 66.0087 1159.47 66.1231 1159.08 66.6321C1158.94 66.826 1158.73 66.8955 1158.53 66.939C1157.8 67.0985 1157.32 67.7886 1156.53 67.8412C1156.39 67.8503 1156.26 68.0897 1156.13 68.2222C1155.32 68.1464 1154.56 68.6248 1153.74 68.4563C1153.53 68.4124 1153.3 68.5478 1153.1 68.3726C1152.58 67.9004 1151.92 67.7409 1151.25 67.6635C1150.65 67.5931 1150.31 67.1553 1149.93 66.7792C1149.85 66.5402 1150.07 66.1222 1149.5 66.1856V65.1443C1150.1 64.3764 1150.96 64.0587 1151.98 63.9137C1152.94 63.7758 1153.9 63.4879 1154.82 63.1731C1155.23 63.0348 1155.57 62.7502 1155.82 62.2706C1156.46 61.0234 1156.94 59.7237 1157.36 58.3949C1157.68 57.3938 1157.65 57.3876 1158.51 56.9336C1159.12 57.0873 1158.88 57.6435 1158.96 57.9869C1159.2 57.7529 1159.42 57.5271 1159.63 57.3151C1159.94 57.5458 1160.1 57.7367 1160.13 58.0246C1160.47 58.0387 1160.84 58.2309 1161.12 57.7852C1161.31 58.2139 1161.01 58.7333 1161.65 58.9599C1161.79 58.7627 1161.98 58.5026 1162.18 58.2354C1162.46 58.5589 1162.22 58.8948 1162.4 59.1483C1162.62 59.2829 1162.74 59.1367 1162.87 58.9942C1162.92 59.0278 1163 59.0489 1163.03 59.0966C1163.76 60.3768 1163.57 61.6257 1162.86 62.838C1162.51 63.4428 1162.04 63.9609 1161.51 64.4203C1161.12 64.7608 1160.86 65.1795 1160.73 65.6153Z" fill="#FAB133"/>
<path fill-rule="evenodd" clip-rule="evenodd" d="M1146.7 48.9885C1146.41 49.0175 1146.14 49.1476 1145.99 48.7934C1145.64 49.049 1145.39 49.561 1144.88 49.0884C1144.76 48.9703 1144.6 48.9844 1144.5 49.124C1144.34 49.3526 1144.08 49.1832 1143.88 49.288C1143.57 50.2701 1142.78 50.8785 1142.02 51.4949C1141.93 51.5715 1141.78 51.7111 1141.67 51.7123C1140.67 51.721 1139.66 51.8068 1138.66 51.6713C1138.36 51.2936 1137.71 51.7765 1137.5 51.1937C1137.09 51.1871 1136.73 51.0405 1136.37 50.8437C1135.99 50.6404 1135.66 50.3575 1135.29 50.1781C1134.72 49.9014 1134.42 49.4462 1134.13 48.9471C1133.95 48.6153 1133.81 48.2566 1133.64 47.8996C1133.83 47.5314 1133.98 47.1296 1134.34 46.8442C1134.54 46.6798 1134.73 46.5874 1135 46.5149C1135.67 46.3289 1136.27 45.9553 1136.84 45.5126C1138.19 44.465 1139.48 43.3434 1140.77 42.225C1141.02 42.0059 1141.33 41.9421 1141.6 41.7852C1141.81 41.9438 1142.07 42.0565 1141.99 42.3812C1142.35 42.6028 1142.75 42.3468 1143.09 42.5415C1143.11 42.8629 1142.74 42.5469 1142.73 42.8625C1143.01 43.0298 1143.38 42.8687 1143.71 42.9412C1143.86 43.1823 1144.17 43.2866 1144.27 43.606C1144.35 43.8678 1144.7 44.1954 1144.63 44.3259C1144.44 44.6684 1144.77 44.8701 1144.72 45.1534C1144.66 45.4388 1144.77 45.8075 1144.63 46.0121C1144.46 46.249 1144.83 46.5236 1144.45 46.6881C1144.87 46.9498 1145.24 47.3491 1145.65 47.4017C1146.1 47.4597 1146.11 48.2086 1146.7 47.8507V48.9885Z" fill="#FAB133"/>
<path fill-rule="evenodd" clip-rule="evenodd" d="M1117.31 58.3242C1116.76 58.5897 1116.54 59.2764 1115.86 59.4632C1115.63 58.7471 1116.79 58.6241 1116.43 57.9464C1116.11 57.7638 1115.8 57.5165 1115.44 57.4013C1115.12 57.2994 1115 57.1367 1114.87 56.8455C1114.68 56.423 1114.43 56.0067 1113.99 55.7284C1113.99 55.4707 1113.96 55.209 1113.99 54.9555C1114.07 54.3847 1114.21 53.8554 1114.66 53.4229C1115.78 52.3481 1117.03 51.5035 1118.53 51.0483C1118.89 50.9394 1119.21 50.7062 1119.58 50.5186C1119.63 50.0281 1119.93 49.5605 1119.9 48.9852C1119.88 48.7371 1120.08 48.3336 1120.51 48.2491C1120.73 48.2057 1120.93 48.0396 1121.22 47.8867V49.3588C1121.58 49.0038 1121.83 48.7582 1122.06 48.53C1123.4 49.3306 1124.35 50.3305 1124.63 51.873C1124.47 51.9293 1124.34 51.9753 1124.17 52.0358V52.9744C1123.57 53.4225 1123.52 54.1196 1123.29 54.6867C1122.99 55.3949 1122.66 56.0291 1122.14 56.5816C1121.69 57.06 1121.13 57.4457 1120.85 58.0777C1120.78 58.238 1120.62 58.4132 1120.46 58.4696C1119.84 58.6862 1119.44 59.1393 1119.06 59.6919C1118.99 59.4993 1118.94 59.3688 1118.85 59.1136C1118.69 59.5991 1118.6 59.9594 1118.13 60.1964C1117.54 60.4855 1117.34 60.1471 1117.04 59.8687C1116.89 60.0245 1116.77 60.1798 1116.55 60.0605C1116.53 59.998 1116.46 59.9188 1116.48 59.8716C1116.64 59.467 1116.84 59.088 1117.19 58.8109C1117.34 58.6936 1117.46 58.5545 1117.31 58.3242Z" fill="#FAB133"/>
<path fill-rule="evenodd" clip-rule="evenodd" d="M1136.26 10.3732C1136.11 10.316 1136.1 10.1545 1135.91 10.239C1135.85 10.7758 1136.03 11.3888 1135.55 11.9459C1135.35 12.0168 1134.92 11.9128 1134.8 12.2947C1134.71 12.6012 1134.61 12.8327 1134.31 12.8783C1133.96 12.8725 1134.22 12.4206 1133.91 12.4243C1133.6 12.426 1133.51 12.7333 1133.3 12.8725C1133.2 12.807 1133.14 12.6815 1133.19 12.5958C1133.35 12.3473 1133.53 12.1162 1133.36 11.8055C1133.11 11.5955 1133 11.9045 1132.82 11.9397C1132.69 11.8614 1132.7 11.7148 1132.74 11.6369C1133.19 10.792 1133.36 9.85959 1133.69 8.98107C1133.03 8.56024 1132.35 8.28149 1131.7 7.96297C1130.98 7.60385 1130.49 7.05918 1129.86 6.5203H1128.89C1128.89 5.94995 1129.54 5.79959 1129.41 5.16587C1129.07 4.93433 1128.99 5.78261 1128.57 5.648C1128.46 5.58421 1128.43 5.48894 1128.45 5.30918C1129.07 4.91196 1129.86 4.8722 1130.55 4.53876C1131.27 4.18421 1132.12 4.14155 1132.91 3.96385C1133.73 3.77912 1134.53 3.94894 1135.37 3.80687C1135.96 3.35084 1135.86 2.55723 1136.12 1.91273C1136.38 1.2409 1136.68 0.607581 1137.24 0.117581C1137.45 -0.0663239 1137.64 0.0152737 1137.88 0.0355696C1137.92 0.3748 1137.32 0.422433 1137.53 0.869357C1137.82 0.728114 1138.12 0.586457 1138.4 0.451428C1138.63 0.465925 1138.61 0.624978 1138.61 0.773262C1139.7 1.0222 1139.89 1.1419 1140.28 2.27598C1140.37 2.52326 1140.43 2.85504 1140.42 3.16237C1140.41 3.57533 1140.42 3.98912 1140.42 4.39669C1140.5 4.56362 1140.68 4.48078 1140.83 4.58598V6.27882C1139.98 6.57249 1139.78 7.48249 1139.29 8.14894C1139.08 8.44137 1138.92 8.77811 1138.3 8.85474C1138.6 8.52669 1138.86 8.33823 1138.97 8.0835C1139.08 7.83705 1139.36 7.64527 1139.28 7.34415C1139.21 7.2232 1139.16 7.21699 1139.11 7.29693C1138.78 7.75835 1138.54 8.29847 1137.93 8.4832C1137.96 8.9032 1137.81 8.8361 1137.6 8.59379C1137.37 8.75616 1137.52 8.99681 1137.48 9.19811C1137.46 9.34805 1137.48 9.48101 1137.25 9.49385C1136.71 9.52492 1136.6 10.0601 1136.26 10.3732Z" fill="#FAB133"/>
<path fill-rule="evenodd" clip-rule="evenodd" d="M1115.33 26.2072C1115.38 26.6695 1115.31 26.9702 1114.92 27.1147C1114.62 27.111 1114.53 26.8037 1114.32 26.6641C1114.06 26.9416 1113.79 26.9863 1113.47 26.7229C1113.2 26.5063 1112.97 26.206 1112.94 25.9301C1112.89 25.3817 1112.55 25.0781 1112.2 24.7695C1111.53 24.1839 1111.08 23.4756 1110.75 22.6579C1110.59 22.2566 1110.58 21.9782 1110.79 21.5644C1111.16 20.8545 1111.67 20.4668 1112.43 20.3355C1112.92 20.2494 1113.37 19.9789 1113.88 20.1247C1113.99 19.9263 1114.17 19.8596 1114.22 19.6459C1114.49 18.5255 1114.94 17.468 1115.49 16.4544C1115.87 15.7594 1116.19 15.7159 1116.89 16.1036C1117.33 16.3459 1117.76 16.5414 1118.15 16.8972C1118.68 17.3885 1118.89 17.6527 1119.19 18.3726C1119.48 19.0809 1119.65 19.7917 1119.64 20.5575C1119.64 20.9075 1119.48 21.3043 1119.85 21.6009C1119.9 21.6456 1119.89 21.8324 1119.85 21.9273C1119.57 22.5751 1119.7 23.3219 1119.3 23.9573C1118.86 24.6681 1118.43 25.3921 1117.76 25.8966C1117.54 26.0652 1117.24 26.247 1116.88 26.2172C1116.4 26.1774 1115.91 26.2072 1115.33 26.2072Z" fill="#FAB133"/>
<path fill-rule="evenodd" clip-rule="evenodd" d="M1103.36 38.9182C1103.36 39.187 1103.28 39.4537 1103.38 39.5494C1103.84 40.017 1103.24 40.4002 1103.32 40.8239C1102.79 41.3243 1102.63 42.0586 1102.2 42.6112C1101.95 42.921 1101.7 43.2279 1101.18 43.177C1100.9 43.1488 1100.57 43.3277 1100.34 43.5767C1100.11 43.4077 1099.87 43.2586 1099.57 43.4421C1099.54 43.626 1099.84 43.6815 1099.72 43.9524C1099.31 44.0857 1098.86 44.2315 1098.4 44.384C1097.94 44.5397 1097.34 44.5761 1097.06 44.8938C1096.73 45.2641 1096.31 45.5048 1095.96 45.9037C1095.68 45.7123 1095.34 45.6286 1094.98 45.5835C1095.14 45.2882 1095.55 45.2099 1095.41 44.7311C1095.21 44.8885 1095.04 45.0272 1094.87 45.1647C1094.75 45.0922 1094.74 44.9286 1094.79 44.8731C1094.98 44.666 1095.08 44.4486 1094.94 44.0915C1094.3 44.0758 1093.65 43.8211 1093 43.51C1092.81 43.1666 1093.21 42.8829 1093.22 42.5876C1092.94 42.3763 1092.81 42.506 1092.67 42.6601C1092.3 42.53 1092.16 42.1899 1092.33 41.9108C1092.55 41.5268 1092.72 41.1047 1093.21 40.8761C1094.63 40.2125 1095.99 39.4127 1097.41 38.8047C1098.03 37.741 1097.92 36.3514 1098.95 35.4766H1099.62C1099.73 35.8054 1099.97 35.8597 1100.3 35.9583C1100.9 36.1318 1101.54 36.416 1101.77 37.0841C1101.92 37.5405 1102.3 37.8259 1102.48 38.255C1102.62 38.5624 1102.89 38.866 1103.36 38.9182Z" fill="#FAB133"/>
<path fill-rule="evenodd" clip-rule="evenodd" d="M1132.41 74.9983C1132.26 74.8835 1132.21 74.7539 1132.17 74.7622C1131.82 75.1329 1131.52 75.4427 1131.13 75.8524C1131.1 76.0561 1131.57 75.7749 1131.58 76.0441C1130.9 76.4438 1129.97 76.5913 1129.88 77.6844C1129.91 77.7117 1130.01 77.8182 1130.19 77.9971C1130.39 77.7366 1130.58 77.476 1130.77 77.2101C1131.01 77.4644 1130.94 77.6044 1130.79 77.754C1130.42 78.1193 1130.02 78.379 1129.47 78.4092C1129.09 78.4299 1128.75 78.7489 1128.31 78.5894C1128.26 78.7522 1128.21 78.8831 1128.17 79.0169C1128.02 79.1047 1128.01 78.9237 1127.85 78.8752C1127.82 79.2472 1127.42 79.2608 1127.23 79.5027C1126.86 79.3544 1126.59 78.9278 1126.21 78.9895C1126.03 79.0189 1125.75 78.6242 1125.63 79.1043C1125.43 78.8512 1125.25 78.6188 1125.1 78.425H1124.17C1123.62 78.1648 1123.46 77.6765 1123.25 77.2321C1123.32 77.1148 1123.38 77.0043 1123.45 76.8974L1123.02 76.467C1123.03 76.1464 1123.25 75.9 1123.42 75.6403C1123.58 75.3798 1123.85 75.4179 1124.1 75.5206C1124.12 75.7165 1123.79 75.8283 1124 76.1025C1124.5 75.7625 1125.12 75.6763 1125.67 75.4129C1126.05 74.4006 1126.02 73.2466 1126.84 72.3838C1127.03 72.1834 1127.18 71.7601 1127.1 71.3703C1127.06 71.1595 1127.25 71.1657 1127.42 71.1665C1127.69 71.4776 1127.45 71.8727 1127.57 72.2099C1128.31 71.8905 1128.55 71.444 1128.53 70.6666C1128.52 70.4247 1128.74 70.1782 1128.63 69.8601C1128.44 69.8208 1128.48 69.9765 1128.44 70.0912C1128.41 70.1882 1128.31 70.2635 1128.25 70.3497C1128.15 70.481 1128.02 70.5257 1127.86 70.4653C1127.91 69.3287 1128.23 68.8548 1129.25 68.4609C1129.5 68.7032 1129.23 69.0429 1129.42 69.3171C1129.64 69.2827 1129.72 69.0537 1129.92 68.9153C1130.04 69.1506 1130.1 69.4393 1130.37 69.5822C1130.59 69.6658 1130.69 69.4654 1130.87 69.3287C1131.65 69.6534 1132.27 70.0974 1132.3 71.0915C1132.31 71.4349 1132.71 71.8044 1132.49 72.1109C1132.22 72.4907 1132.62 72.7372 1132.53 73.0722C1132.39 73.5382 1132.85 73.9367 1132.76 74.4449C1132.71 74.7013 1132.56 74.8231 1132.41 74.9983Z" fill="#FAB133"/>
<path fill-rule="evenodd" clip-rule="evenodd" d="M1156.83 20.1094H1157.48C1157.74 20.3475 1157.49 20.6839 1157.64 20.9556C1158.03 21.1664 1158.12 20.7435 1158.35 20.5994C1158.4 20.6238 1158.46 20.6429 1158.5 20.6793C1158.76 20.8926 1158.9 21.1867 1159.19 21.4054C1160.11 22.1191 1160.29 23.2101 1159.75 24.3839C1159.5 24.9224 1159.26 25.5217 1158.85 25.9132C1158.51 26.2354 1158.59 26.655 1158.33 26.9615C1158.07 27.2601 1157.74 27.4701 1157.56 27.8802C1157.34 28.3578 1156.66 28.4688 1156.33 28.9207C1155.73 28.7836 1155.63 29.2943 1155.4 29.6377C1155.29 29.7905 1155.14 29.9069 1154.97 30.0713C1154.65 30.0084 1154.35 29.8116 1153.97 29.7971C1153.65 29.7843 1153.35 29.3838 1153.01 29.7748C1152.53 29.3485 1152 29.9011 1151.56 29.7416C1151.07 29.5668 1150.51 29.6182 1150.07 29.2268C1149.92 29.0909 1149.58 29.1477 1149.32 29.1514C1149 29.1559 1148.88 28.9493 1148.84 28.8532C1148.69 28.4443 1149.25 28.4319 1148.96 28.1035C1148.84 27.891 1148.56 28.1242 1148.38 27.9535C1148.28 27.787 1148.33 27.6064 1148.35 27.4287C1148.71 27.2734 1149.05 27.109 1149.47 27.0953C1150.07 27.0758 1150.56 26.6716 1151.12 26.4624C1152.26 26.0325 1153.31 25.4526 1154.17 24.562C1154.48 24.2427 1154.7 23.8885 1154.88 23.4971C1155.27 22.6799 1155.68 21.8672 1156.08 21.0583C1156.26 20.7021 1156.47 20.3583 1156.83 20.1094Z" fill="#FAB133"/>
<path fill-rule="evenodd" clip-rule="evenodd" d="M1091.27 18.3077C1091.43 18.458 1091.59 18.608 1091.75 18.7542C1092.57 18.7244 1092.77 17.997 1092.94 17.4697C1093.43 15.9413 1094.04 14.4585 1094.56 12.9409C1094.7 12.5051 1094.83 12.4124 1095.82 11.9414C1095.93 12.4625 1096.23 12.6716 1096.8 12.6953C1097.16 12.7097 1097.62 13.0577 1097.83 13.3853C1098.01 13.6537 1098.41 13.935 1098.35 14.1479C1098.26 14.4796 1098.79 14.6929 1098.44 15.0148C1098.39 15.0612 1098.67 15.2434 1098.63 15.46C1098.56 15.7955 1099.09 16.083 1098.83 16.3647C1098.5 16.7138 1099.01 16.9338 1098.85 17.2121C1098.83 17.2407 1098.84 17.2896 1098.85 17.3235C1098.98 17.7344 1098.11 17.7651 1098.5 18.3445C1098.64 18.5483 1098.26 18.9141 1098.1 19.2003C1097.89 19.5569 1097.63 19.8448 1097.36 20.1331C1097.11 20.3969 1096.85 20.6504 1096.44 20.7005C1096.09 20.2188 1095.73 21.0095 1095.34 20.7983C1095.24 21.5293 1094.33 21.4751 1094.09 22.1258C1094.03 22.3043 1094.3 22.3648 1094.33 22.5566C1094.26 23.0486 1093.85 23.1816 1093.51 23.0221C1092.98 22.7682 1092.45 22.8722 1091.9 22.8009C1091.85 22.3167 1091.71 21.8715 1091.35 21.5521C1091.15 21.3695 1091.07 21.0911 1091.18 20.9598C1091.69 20.3393 1091.2 19.8009 1091.08 19.2479C1090.97 18.7513 1090.92 18.7621 1091.27 18.3077Z" fill="#FAB133"/>
<path fill-rule="evenodd" clip-rule="evenodd" d="M1161.88 42.5865C1162.15 42.3226 1162.39 42.084 1162.62 41.8463C1164.24 41.5858 1165.86 41.3484 1167.53 41.7887C1168.02 41.6769 1168.25 41.1972 1168.38 40.7975C1168.55 40.2736 1168.98 39.9389 1169.14 39.4187C1169.25 39.0314 1169.77 39.1295 1169.94 38.8164C1170.31 38.9684 1170.56 39.1088 1170.44 39.5462C1170.96 39.5164 1171.4 39.5098 1171.69 39.955C1171.91 40.2988 1172.47 40.2591 1172.57 40.8162C1172.64 41.2072 1172.95 41.5547 1173.14 41.8902C1172.64 42.6271 1173.35 43.2301 1173.32 43.9024C1173.16 44.3431 1173.02 44.7664 1172.36 44.795C1171.99 44.8111 1171.6 45.1417 1171.28 45.4059C1170.87 45.7472 1170.51 45.751 1170.1 45.401C1170.08 45.9527 1169.6 46.0455 1169.23 46.2642C1169.14 46.2174 1169.02 46.0906 1168.92 46.0985C1168.18 46.1498 1167.5 45.7584 1166.82 45.7613C1166.12 45.7642 1165.46 45.6603 1164.91 45.3417C1164.33 45.0042 1163.65 44.9354 1163.1 44.5316C1162.86 44.3609 1162.65 44.2776 1162.55 43.9637C1162.4 43.5002 1161.86 43.2256 1161.88 42.5865Z" fill="#FAB133"/>
<defs>
<linearGradient id="paint0_linear_3491_30651" x1="482" y1="287" x2="508.71" y2="385.777" gradientUnits="userSpaceOnUse">
<stop stop-color="#FCCF31"/>
<stop offset="1" stop-color="#F55555"/>
</linearGradient>
</defs>
</svg>