<svg width="28" height="30" viewBox="0 0 28 30" fill="none" xmlns="http://www.w3.org/2000/svg">
<path d="M17.1049 0V7.5C17.1049 8.35248 17.4492 9.17005 18.0622 9.77284C18.6752 10.3756 19.5065 10.7143 20.3734 10.7143H28V26.7857C28 27.6382 27.6556 28.4558 27.0427 29.0586C26.4297 29.6614 25.5983 30 24.7315 30H16.3683C18.6868 28.4004 20.3542 26.045 21.075 23.3517C21.7958 20.6583 21.5234 17.8008 20.3061 15.2861C19.0887 12.7714 17.0051 10.762 14.4248 9.61401C11.8444 8.46606 8.93402 8.25385 6.20972 9.015V3.21429C6.20972 2.3618 6.55408 1.54424 7.16705 0.941443C7.78002 0.338647 8.61139 0 9.47826 0H17.1049ZM19.2839 0.535714V7.5C19.2839 7.78416 19.3987 8.05668 19.603 8.25762C19.8073 8.45855 20.0844 8.57143 20.3734 8.57143H27.4552L19.2839 0.535714ZM1.05413 19.1143C1.61683 18.9727 2.14507 18.722 2.60783 18.3769C3.07058 18.0317 3.45851 17.5991 3.74881 17.1043C4.03911 16.6096 4.22593 16.0629 4.29828 15.4962C4.37064 14.9294 4.32707 14.3542 4.17014 13.8043L3.83239 12.6107C4.38587 12.1929 4.9851 11.835 5.62138 11.5457L6.35789 12.3129C6.76514 12.7378 7.2564 13.0764 7.80152 13.3079C8.34664 13.5395 8.93412 13.659 9.52791 13.6592C10.1217 13.6594 10.7093 13.5403 11.2545 13.3091C11.7998 13.078 12.2913 12.7397 12.6989 12.315L13.4049 11.5779C14.0542 11.8779 14.6643 12.2529 15.2244 12.6879L14.9498 13.5943C14.7798 14.1536 14.7278 14.7413 14.797 15.3211C14.8662 15.9009 15.0552 16.4607 15.3523 16.9661C15.6493 17.4716 16.0483 17.912 16.5247 18.2604C17.001 18.6088 17.5447 18.8578 18.1225 18.9921L18.8829 19.1679C18.9703 19.8914 18.9777 20.6221 18.9047 21.3471L17.9024 21.6C17.3397 21.7413 16.8115 21.9918 16.3487 22.3367C15.8858 22.6816 15.4978 23.1141 15.2073 23.6085C14.9168 24.103 14.7297 24.6496 14.6571 25.2162C14.5844 25.7828 14.6276 26.3579 14.7842 26.9079L15.1241 28.1014C14.569 28.5211 13.9683 28.879 13.333 29.1686L12.5986 28.4014C12.1915 27.9763 11.7004 27.6376 11.1553 27.4059C10.6103 27.1742 10.0229 27.0544 9.42908 27.054C8.8353 27.0536 8.24769 27.1726 7.70233 27.4035C7.15697 27.6345 6.66535 27.9726 6.25765 28.3971L5.54947 29.1343C4.90204 28.8335 4.2916 28.4611 3.72998 28.0243L4.00672 27.12C4.17705 26.5605 4.2293 25.9727 4.16026 25.3926C4.09122 24.8125 3.90235 24.2525 3.60524 23.7468C3.30813 23.2411 2.90905 22.8005 2.43251 22.4519C1.95597 22.1034 1.41202 21.8543 0.834052 21.72L0.0713921 21.5443C-0.0158512 20.8215 -0.0231573 20.0915 0.0496018 19.3671L1.05413 19.1143ZM11.6551 20.3571C11.6551 19.7888 11.4255 19.2438 11.0169 18.8419C10.6082 18.4401 10.054 18.2143 9.47608 18.2143C8.89817 18.2143 8.34392 18.4401 7.93527 18.8419C7.52663 19.2438 7.29705 19.7888 7.29705 20.3571C7.29705 20.9255 7.52663 21.4705 7.93527 21.8724C8.34392 22.2742 8.89817 22.5 9.47608 22.5C10.054 22.5 10.6082 22.2742 11.0169 21.8724C11.4255 21.4705 11.6551 20.9255 11.6551 20.3571Z" fill="url(#paint0_linear_2359_13194)"/>
<defs>
<linearGradient id="paint0_linear_2359_13194" x1="0" y1="0" x2="29.9287" y2="27.9335" gradientUnits="userSpaceOnUse">
<stop stop-color="#FCCF31"/>
<stop offset="1" stop-color="#F55555"/>
</linearGradient>
</defs>
</svg>
