<svg width="25" height="39" viewBox="0 0 25 39" fill="none" xmlns="http://www.w3.org/2000/svg">
<path d="M24.5515 26.024C24.5515 27.6373 24.1262 29.1333 23.2755 30.512C22.4542 31.8613 21.2222 32.976 19.5795 33.856C17.9662 34.7067 16.0449 35.176 13.8155 35.264V38.828H10.9995V35.22C7.8902 34.956 5.3822 34.032 3.47553 32.448C1.56886 30.8347 0.556864 28.6493 0.439531 25.892H8.44753C8.62353 27.652 9.4742 28.7813 10.9995 29.28V22.328C8.71153 21.7413 6.8782 21.1693 5.49953 20.612C4.1502 20.0547 2.9622 19.16 1.93553 17.928C0.908864 16.696 0.395531 15.0093 0.395531 12.868C0.395531 10.1987 1.3782 8.05733 3.34353 6.444C5.3382 4.83066 7.8902 3.92133 10.9995 3.716V0.151998H13.8155V3.716C16.8955 3.95067 19.3302 4.84533 21.1195 6.4C22.9089 7.95467 23.9062 10.1107 24.1115 12.868H16.0595C15.8835 11.284 15.1355 10.2573 13.8155 9.788V16.608C16.2502 17.2827 18.1275 17.884 19.4475 18.412C20.7675 18.94 21.9409 19.82 22.9675 21.052C24.0235 22.2547 24.5515 23.912 24.5515 26.024ZM8.35953 12.516C8.35953 13.2493 8.57953 13.8653 9.01953 14.364C9.48886 14.8627 10.1489 15.3027 10.9995 15.684V9.568C10.1782 9.71467 9.53286 10.0373 9.06353 10.536C8.5942 11.0053 8.35953 11.6653 8.35953 12.516ZM13.8155 29.412C14.6955 29.2653 15.3849 28.9133 15.8835 28.356C16.4115 27.7987 16.6755 27.1093 16.6755 26.288C16.6755 25.5253 16.4262 24.9093 15.9275 24.44C15.4582 23.9413 14.7542 23.516 13.8155 23.164V29.412Z" fill="url(#paint0_linear_2540_14075)"/>
<defs>
<linearGradient id="paint0_linear_2540_14075" x1="0" y1="5" x2="29.5082" y2="29.5902" gradientUnits="userSpaceOnUse">
<stop stop-color="#FFF720"/>
<stop offset="1" stop-color="#3CD500"/>
</linearGradient>
</defs>
</svg>
