<svg width="28" height="30" viewBox="0 0 28 30" fill="none" xmlns="http://www.w3.org/2000/svg">
<path fill-rule="evenodd" clip-rule="evenodd" d="M28 27.8883C28 28.8907 27.4867 29.7064 26.852 29.7064H1.148C0.513333 29.7064 0 28.8907 0 27.8883C0 26.8821 0.513333 26.0664 1.148 26.0664H26.852C27.4867 26.0664 28 26.8821 28 27.8883Z" fill="url(#paint0_linear_2359_13216)"/>
<path fill-rule="evenodd" clip-rule="evenodd" d="M7.36653 22.8112C7.36653 23.515 6.68333 24.0918 5.84333 24.0918H3.5604C2.71853 24.0918 2.03906 23.515 2.03906 22.8112V16.3899C2.03906 15.6843 2.71853 15.1094 3.5604 15.1094H5.84333C6.68333 15.1094 7.36653 15.6843 7.36653 16.3899V22.8112Z" fill="url(#paint1_linear_2359_13216)"/>
<path fill-rule="evenodd" clip-rule="evenodd" d="M16.6322 22.8132C16.6322 23.5188 15.9508 24.0919 15.1108 24.0919H12.826C11.986 24.0919 11.3047 23.5188 11.3047 22.8132V14.4505C11.3047 13.7449 11.986 13.1719 12.826 13.1719H15.1108C15.9508 13.1719 16.6322 13.7449 16.6322 14.4505V22.8132Z" fill="url(#paint2_linear_2359_13216)"/>
<path fill-rule="evenodd" clip-rule="evenodd" d="M26.0163 22.7636C26.0163 23.4636 25.3312 24.0329 24.4781 24.0329H22.1709C21.3197 24.0329 20.6328 23.4636 20.6328 22.7636V10.6209C20.6328 9.9209 21.3197 9.35156 22.1709 9.35156H24.4781C25.3312 9.35156 26.0163 9.9209 26.0163 10.6209V22.7636Z" fill="url(#paint3_linear_2359_13216)"/>
<path fill-rule="evenodd" clip-rule="evenodd" d="M1.37129 12.849C1.0321 12.8502 0.705588 12.7201 0.460238 12.4859C0.214889 12.2517 0.0697597 11.9316 0.0552873 11.5927C0.0500701 11.4208 0.0789311 11.2496 0.140206 11.0889C0.201482 10.9282 0.293959 10.7813 0.412306 10.6565C0.530652 10.5317 0.672527 10.4316 0.829749 10.362C0.986971 10.2923 1.15643 10.2544 1.32835 10.2506C10.6692 9.92016 19.562 6.32122 25.7332 0.370291C25.9852 0.128829 26.322 -0.00409256 26.6711 9.60722e-05C27.0201 0.0042847 27.3536 0.145249 27.5998 0.392691C27.7207 0.513952 27.8162 0.658092 27.8807 0.816684C27.9452 0.975276 27.9774 1.14514 27.9755 1.31633C27.9736 1.48753 27.9376 1.65663 27.8695 1.81374C27.8015 1.97085 27.7028 2.11283 27.5793 2.23136C20.8481 8.72176 11.5577 12.4924 1.41982 12.8471L1.37129 12.849Z" fill="url(#paint4_linear_2359_13216)"/>
<defs>
<linearGradient id="paint0_linear_2359_13216" x1="0" y1="26.0664" x2="0.930672" y2="33.2254" gradientUnits="userSpaceOnUse">
<stop stop-color="#FCCF31"/>
<stop offset="1" stop-color="#F55555"/>
</linearGradient>
<linearGradient id="paint1_linear_2359_13216" x1="2.03906" y1="15.1094" x2="9.92128" y2="19.7843" gradientUnits="userSpaceOnUse">
<stop stop-color="#FCCF31"/>
<stop offset="1" stop-color="#F55555"/>
</linearGradient>
<linearGradient id="paint2_linear_2359_13216" x1="11.3047" y1="13.1719" x2="19.9112" y2="17.3707" gradientUnits="userSpaceOnUse">
<stop stop-color="#FCCF31"/>
<stop offset="1" stop-color="#F55555"/>
</linearGradient>
<linearGradient id="paint3_linear_2359_13216" x1="20.6328" y1="9.35156" x2="30.1236" y2="12.8317" gradientUnits="userSpaceOnUse">
<stop stop-color="#FCCF31"/>
<stop offset="1" stop-color="#F55555"/>
</linearGradient>
<linearGradient id="paint4_linear_2359_13216" x1="0.0546875" y1="0" x2="9.8139" y2="21.2068" gradientUnits="userSpaceOnUse">
<stop stop-color="#FCCF31"/>
<stop offset="1" stop-color="#F55555"/>
</linearGradient>
</defs>
</svg>
