<svg width="102" height="127" viewBox="0 0 102 127" fill="none" xmlns="http://www.w3.org/2000/svg">
<path fill-rule="evenodd" clip-rule="evenodd" d="M15.2596 23.9401C19.4505 15.5526 24.5878 7.77718 30.0172 0.209725C30.6376 0.369192 30.0925 0.755642 30.3137 0.999606C30.6654 1.16197 31.0568 0.314518 31.5091 1.06836C31.925 1.76091 31.6785 2.28156 31.3857 2.81878C29.8444 5.64653 27.6185 8.03481 26.2753 11.0171C25.8155 12.0368 25.6146 13.2856 24.4809 14.0801C23.783 14.5688 23.9474 15.8048 23.3307 16.6187C22.9447 17.1286 22.7301 17.8419 22.3006 18.4172C20.5891 20.7077 19.6029 23.2985 19.3217 26.1462C19.2711 26.659 19.0574 27.1233 18.5819 27.139C17.2854 27.1825 15.9977 27.7197 14.7269 26.5852C13.8045 25.7614 13.7188 25.0154 13.9797 24.0222C14.6089 21.6293 15.8569 19.5177 17.0817 17.4078C18.5144 14.94 20.1414 12.5885 21.659 10.1754C23.7002 6.92972 25.9853 3.86464 28.1528 0.713808C28.3591 0.41434 28.5567 -0.204891 29.009 0.0676538C29.3495 0.272683 28.9908 0.763098 28.7965 1.06132C27.5713 2.9418 26.2595 4.75848 24.9159 6.55943C23.6281 8.28541 22.5487 10.1762 21.4734 12.0493C19.7359 15.0771 17.8214 18.0034 16.2491 21.1256C15.8009 22.0158 15.3573 22.9175 15.2596 23.9401" fill="#FAB133"/>
<path fill-rule="evenodd" clip-rule="evenodd" d="M8.63796 60.1378C7.85056 60.7707 7.28103 59.7857 7.0321 59.5856C6.35861 59.0447 5.30281 59.6026 5.03979 58.9623C4.64174 57.9926 3.7831 57.1721 4.13932 55.8732C4.82772 53.3606 5.87109 50.9955 6.84115 48.5969C7.54446 46.8581 8.21464 45.1023 9.24186 43.5126C9.69997 42.8039 10.2264 42.1788 11.0039 41.8226C11.8012 41.4569 12.5012 41.4308 13.2691 42.0881C13.8374 42.5744 14.5701 42.8938 15.0962 43.4654C15.597 44.0088 15.9946 44.5775 15.4039 45.3181C14.9893 45.8375 15.0643 46.5184 14.8555 47.1107C14.0164 49.4907 13.697 52.0538 12.3509 54.2545C11.3526 55.8868 10.6149 57.6435 9.84535 59.3864C9.625 59.8855 9.41168 60.4886 8.63796 60.1378" fill="#FAB133"/>
<path fill-rule="evenodd" clip-rule="evenodd" d="M58.2804 42.3125C58.0952 42.73 57.9759 42.9984 57.8608 43.2577C57.9975 43.4362 58.1238 43.3298 58.2597 43.2917C58.5384 43.213 58.6341 42.6791 58.9717 42.8924C59.3801 43.1504 58.8549 43.4594 58.8863 43.7651C59.3333 43.8691 59.4521 43.3169 59.8166 43.3016C60.3816 44.1706 60.085 44.8702 59.559 45.6497C58.1296 47.7679 56.8907 49.9943 56.0565 52.4306C55.7417 53.3505 54.5633 53.8 54.5405 54.8678C54.5116 56.2222 53.8795 57.3981 53.1691 58.3665C51.9423 60.0391 51.6801 62.0069 50.9498 63.8249C50.7444 64.3364 51.026 64.9664 50.5207 65.3856C50.3575 65.521 50.1011 65.8296 49.9947 65.5695C49.6294 64.6806 48.9174 65.1089 48.3279 64.9614C47.234 64.6876 47.0187 63.6149 46.9118 62.6713C46.7436 61.1843 47.1727 59.7462 47.7762 58.4208C50.0858 53.3456 52.7719 48.4766 56.095 43.9855C56.6012 43.3012 57.0552 42.4426 58.2804 42.3125" fill="#FAB133"/>
<path fill-rule="evenodd" clip-rule="evenodd" d="M42.9735 22.1614C42.72 22.9513 42.4752 23.778 42.1902 24.5911C40.3855 29.7454 38.0445 34.6582 35.5087 39.4862C34.5366 41.3368 33.4162 43.1129 32.6806 45.0878C32.4702 45.6536 32.092 46.1001 31.4173 45.4983C31.2582 45.3562 31.0221 45.292 30.8117 45.2175C29.4121 44.7221 28.8654 43.6493 29.3044 42.1934C29.7542 40.6998 30.5864 39.3917 31.3928 38.0804C34.805 32.5338 38.0146 26.8829 40.4646 20.8306C40.7753 20.0635 40.8652 20.0643 41.4099 20.6483C41.4691 20.7117 41.5892 20.7577 41.6754 20.7498C42.6914 20.6591 42.7838 21.4038 42.9735 22.1614" fill="#FAB133"/>
<path fill-rule="evenodd" clip-rule="evenodd" d="M8.76018 80.0508C7.82989 82.3401 6.30894 84.0921 5.42255 86.1652C4.52663 88.2607 3.44184 90.2807 2.87936 92.5174C3.69492 90.7243 4.50592 88.9288 5.32687 87.1378C6.26959 85.0829 7.46498 83.1739 8.64007 81.247C9.22989 80.2802 9.8922 80.3295 10.5562 80.8618C11.2044 81.382 11.339 82.2581 10.7285 82.8686C9.48462 84.1124 8.78504 85.7017 8.33066 87.2629C7.53953 89.9817 6.14865 92.5017 5.72947 95.341C5.63296 95.9955 5.15953 96.5534 5.0622 97.2824C4.95285 98.1025 4.91018 98.805 5.31693 99.5692C5.55261 100.013 6.13415 100.597 5.61764 101.093C5.19515 101.498 4.57634 101.796 3.8722 101.426C3.60338 101.285 3.21154 101.378 2.87563 101.366C0.911485 101.3 -0.247864 100.02 0.0449764 98.0387C0.437639 95.382 1.43545 92.8972 2.48918 90.4435C3.86971 87.2281 5.37078 84.0747 7.41403 81.211C7.71557 80.7885 7.96823 80.3217 8.76018 80.0508" fill="#FAB133"/>
<path fill-rule="evenodd" clip-rule="evenodd" d="M62.3141 105.105C59.6541 105.1 58.8526 103.935 59.7527 101.73C60.4564 100.005 61.6534 98.5834 62.809 97.1593C65.5067 93.8357 68.3146 90.6074 71.3039 87.536C72.035 86.7847 72.9226 86.5158 73.8338 86.2371C74.1519 86.1402 74.861 85.9488 74.8341 86.2259C74.7778 86.7925 75.3465 87.3074 74.8345 87.9138C72.5481 90.6215 70.5078 93.5201 68.3937 96.3615C67.4618 97.6145 66.4304 98.7958 65.5328 100.072C64.926 100.935 64.3056 101.868 64.9211 103.03C64.9948 103.169 64.9567 103.533 64.8912 103.555C63.8408 103.905 63.2059 105.024 62.3141 105.105" fill="#FAB133"/>
<path fill-rule="evenodd" clip-rule="evenodd" d="M89.5052 44.8724C90.8712 43.3378 91.7212 41.4715 93.0682 39.9464C93.465 39.4974 93.9405 39.1076 94.2797 38.6206C94.8397 37.8158 95.4159 38.4292 95.7862 38.6827C96.1457 38.9283 96.3143 39.4991 95.9286 40.0392C94.3539 42.2448 93.0872 44.6591 92.0236 47.1161C91.2656 48.8677 90.0072 50.4019 89.7446 52.4402C89.6448 53.2118 89.1175 54.1023 88.8251 54.9663C88.4341 56.1215 87.631 55.1651 87.0113 55.1229C86.9136 55.1163 86.827 54.8288 86.7375 54.8305C86.356 54.8359 86.1315 55.8071 85.6846 55.1333C85.0782 54.2187 84.4308 53.3559 84.855 52.004C85.5289 49.8581 86.564 47.9221 87.6968 46.0222C89.2327 43.4463 90.6492 40.7797 92.835 38.6541C92.9961 38.4975 93.144 38.3256 93.3163 38.1823C93.494 38.0345 93.733 37.9081 93.9235 38.09C94.1658 38.3215 94.0374 38.6015 93.8253 38.7755C91.9718 40.2931 91.0485 42.4821 89.7496 44.399C89.651 44.5448 89.586 44.7142 89.5052 44.8724" fill="#FAB133"/>
<path fill-rule="evenodd" clip-rule="evenodd" d="M43.7822 82.9959C44.3538 82.4566 44.9992 81.9753 45.4776 81.3636C46.0359 80.6499 46.6576 80.4933 47.4442 80.8044C47.9118 80.99 47.8124 81.4804 47.7673 81.7931C47.6509 82.5979 47.1745 83.2179 46.3967 83.5046C46.2107 83.5729 45.9307 83.4321 45.9311 83.7684C45.9353 85.4115 44.4942 86.2863 43.875 87.6027C43.6849 88.0061 43.3308 88.3892 43.0814 88.803C42.3532 90.0113 41.7576 91.3239 40.2143 91.7865C39.8548 91.8942 39.2848 92.216 39.4791 92.7624C40.0718 94.4287 38.9046 95.5417 38.2423 96.7772C37.1538 98.8072 35.7728 100.672 34.7634 102.752C34.6495 102.986 34.5791 103.32 34.2519 103.238C33.8431 103.136 34.3848 102.774 34.1011 102.56C33.5916 102.831 33.1443 103.564 32.434 102.699C32.1805 102.391 31.8081 102.912 31.6258 103.24C31.4871 103.489 31.3347 103.723 31.0219 103.54C30.6438 103.319 30.9698 103.087 31.0696 102.884C32.8887 99.1763 35.1358 95.7285 37.4677 92.332C39.5213 89.3407 41.5745 86.3489 43.6277 83.3584C43.6787 83.2382 43.7305 83.1173 43.7822 82.9959" fill="#FAB133"/>
<path fill-rule="evenodd" clip-rule="evenodd" d="M63.6705 69.8366C64.9297 67.8882 66.1984 65.9422 67.5996 64.085C66.0012 65.2837 64.0743 68.0654 63.6705 69.8366M66.1346 72.7941C65.7428 72.9084 66.7418 71.5465 65.674 72.3828C65.6454 72.4052 65.5891 72.4395 65.5763 72.4296C64.8725 71.8833 64.2529 71.9139 63.6088 72.5816C63.4398 72.7568 62.1284 71.2872 62.1003 70.8532C62.058 70.1979 62.2237 69.5774 62.512 69.0037C64.139 65.7639 66.4279 63.072 69.3198 60.8937C70.7364 59.8263 72.2225 59.9427 73.7058 60.7375C74.5023 61.1646 74.4986 61.6778 73.8363 62.3169C73.1392 62.9891 72.476 63.702 71.8518 64.4426C71.1315 65.2971 70.5284 66.2352 69.7357 67.0483C68.6944 68.1157 68.3357 69.6296 67.5785 70.8971C67.1597 71.5966 66.7911 72.3066 66.1346 72.7941" fill="#FAB133"/>
<path fill-rule="evenodd" clip-rule="evenodd" d="M99.1324 74.7422C98.9667 75.3076 98.8669 75.6476 98.7149 76.1662C98.9676 75.9707 99.1217 75.9115 99.168 75.805C99.545 74.9435 100.238 75.1663 100.783 75.4451C101.367 75.7433 101.519 76.4168 101.285 76.9975C100.904 77.9452 100.463 78.8838 99.9256 79.7507C99.1838 80.9469 98.3446 82.103 97.8393 83.4093C97.3112 84.7737 96.5412 86.1012 96.8705 87.7054C97.0262 88.4626 96.3937 88.9075 95.702 88.5976C95.3263 88.4286 94.9883 88.4477 94.6168 88.4663C92.2625 88.584 91.0468 86.9143 91.9614 84.6664C93.2508 81.4982 95.3317 78.82 97.4988 76.2151C97.913 75.7172 98.1984 75.0549 99.1324 74.7422" fill="#FAB133"/>
<path fill-rule="evenodd" clip-rule="evenodd" d="M13.3068 124.221C13.2927 125.067 14.0064 125.478 14.105 126.153C13.062 126.295 12.4047 125.73 12.1764 124.565C11.9288 123.3 12.3243 122.135 12.9398 121.127C14.2495 118.981 15.3426 116.712 17.1721 114.858C17.8879 114.134 18.3828 112.961 19.0791 112.084C21.0635 109.583 23.135 107.151 25.1811 104.699C25.592 104.206 26.0795 103.793 26.642 103.472C26.9299 103.307 27.2136 103.27 27.4816 103.485C27.7695 103.717 27.7376 104.013 27.5769 104.298C27.3379 104.723 27.1233 105.171 26.8247 105.551C24.0599 109.063 21.2201 112.519 18.5332 116.09C17.4865 117.482 16.6693 119.08 16.106 120.75C15.8459 121.522 16.1246 122.369 16.2128 123.18C16.2364 123.401 16.545 123.702 16.154 123.868C15.4031 124.187 14.7739 124.502 15.4346 125.48C15.5849 125.703 15.2432 125.82 15.0054 125.826C14.5805 125.836 14.0913 125.829 14.0412 125.301C13.9956 124.816 13.721 124.57 13.3068 124.221" fill="#FAB133"/>
<path fill-rule="evenodd" clip-rule="evenodd" d="M31.3129 66.5297C31.0693 66.357 30.9326 66.3239 30.8262 66.5827C30.4385 67.5259 30.1154 68.5088 29.6093 69.3848C29.3032 69.9141 29.369 71.006 28.1968 70.6875C28.0105 70.6369 28.0486 70.8718 28.1331 71.0047C28.3306 71.3154 28.208 71.5432 27.9939 71.8046C27.6286 72.2498 27.5279 72.744 27.6228 73.3545C27.7988 74.482 27.0143 75.0316 25.9829 74.5689C25.8591 74.513 25.6392 74.325 25.628 74.4028C25.3645 76.2402 24.3688 73.8039 23.9625 74.694C23.6576 74.4405 23.5143 74.1179 23.4795 73.7194C23.4 72.8061 23.7736 72.0336 24.1973 71.2752C25.8028 68.4019 28.1024 66.1085 30.4609 63.8763C31.0287 63.3383 31.8845 63.3093 32.6205 63.0927C33.0525 62.9655 33.3073 63.3234 33.4709 63.6655C33.695 64.1344 33.4481 64.1833 33.0645 64.0582C33.0136 64.8994 32.4635 65.4818 32.0121 66.1205C31.8132 66.4017 31.6844 66.7418 31.3129 66.5297" fill="#FAB133"/>
<path fill-rule="evenodd" clip-rule="evenodd" d="M64.8874 20.3425C64.7946 20.2737 64.7022 20.205 64.6098 20.1362C64.0772 20.98 63.5395 21.8204 63.0197 22.672C62.9593 22.7714 62.8408 22.9507 63.0206 23.0592C63.1456 23.1346 63.3602 23.1562 63.4029 22.9979C63.6733 21.9894 64.6198 21.3478 64.8874 20.3425M60.962 30.5842C60.6327 31.0601 60.8675 31.8736 59.83 31.939C59.0798 31.9867 59.2153 31.6243 59.2149 31.2382C58.57 31.2962 58.828 32.0625 58.2568 32.2145C58.0216 31.1777 58.4039 30.1853 58.3575 29.1892C58.3645 29.1598 58.3691 29.1274 58.372 29.0927C59.173 28.4051 59.3578 27.3762 59.8018 26.4923C59.9849 26.127 60.0491 25.6912 60.274 25.3603C62.084 22.6974 63.5569 19.822 65.5066 17.2419C67.0346 15.2198 68.3878 13.0668 70.0197 11.1188C70.395 10.6711 70.7268 10.1802 71.532 9.71094C70.9107 10.8359 70.4377 11.6916 69.9651 12.5474C69.9767 12.5134 69.987 12.4786 69.9961 12.4426C68.7506 13.4288 68.2432 14.9514 67.1767 16.088C67.5411 16.3966 67.6505 16.0747 67.8257 16.0383C68.1256 15.9766 68.3107 16.1646 68.4267 16.4227C68.4839 16.549 68.5978 16.7354 68.3961 16.7872C67.5014 17.017 67.7159 17.7593 67.6898 18.3479C67.6609 18.9986 67.3071 19.356 66.7985 19.6468C66.0148 20.0945 65.5488 20.7295 65.6329 21.6776C65.4954 21.881 65.3583 22.0848 65.2208 22.2882C64.3642 22.7082 63.139 24.7539 63.226 25.6183C62.7372 25.6436 62.5442 26.5698 61.879 26.0619C61.6819 25.5144 61.57 25.2551 61.0581 25.9369C60.4111 26.7976 60.5151 27.9698 59.7347 28.7389C59.6187 28.8528 59.6266 29.021 59.7856 29.1183C59.9923 29.2451 60.1841 29.1523 60.2156 28.9493C60.3531 28.0721 61.0535 27.4553 61.2656 26.6207C61.3555 26.2686 61.4503 25.9605 61.9105 26.0301C62.1901 27.6558 60.9384 28.7663 60.5093 30.1543C60.4525 30.3382 59.7629 29.8428 60.013 30.4616C60.1348 30.7635 60.5942 30.9135 60.962 30.5842" fill="#FAB133"/>
<path fill-rule="evenodd" clip-rule="evenodd" d="M86.5802 105.677C86.3508 106.309 86.5285 106.88 86.7306 107.428C86.837 107.716 86.9174 107.935 86.572 108.055C86.2567 108.164 86.0629 107.943 85.9511 107.702C85.6657 107.089 85.7365 106.405 85.9059 105.821C86.5517 103.59 87.7624 101.654 89.2556 99.888C89.6988 99.3644 90.224 98.8901 90.5711 98.309C91.2019 97.2528 92.2755 96.9517 93.299 96.6178C93.777 96.4617 93.8685 97.1029 93.9667 97.4479C94.0226 97.6455 93.8772 98.0286 93.7012 98.1438C92.0001 99.2563 91.7263 101.329 90.5723 102.82C90.1921 103.311 90.3665 104.307 89.8752 104.959C89.4871 105.475 89.2779 106.119 88.5564 106.364C88.1401 106.506 88.4553 107.042 88.2673 107.36C88.1708 107.524 88.1115 107.72 87.9061 107.747C87.7015 107.774 87.4434 107.599 87.4803 107.468C87.7284 106.588 86.69 106.364 86.5802 105.677" fill="#FAB133"/>
<path fill-rule="evenodd" clip-rule="evenodd" d="M43.7847 82.9972C43.733 83.1186 43.6812 83.2395 43.6302 83.3597C42.1362 84.6764 40.9309 86.264 39.7612 87.8442C38.152 90.018 36.6969 92.3139 35.2957 94.6301C34.1098 96.5905 32.5972 98.3521 31.7654 100.536C31.4279 101.422 30.8679 102.231 29.8903 102.836C29.6601 101.502 30.51 100.647 31 99.7061C32.2906 97.2271 33.9209 94.9556 35.5243 92.6759C38.4171 88.5633 41.1347 84.3111 44.7399 80.7469C44.9461 80.5431 45.111 80.2627 45.6072 80.4143C45.2833 81.4937 44.2478 82.0603 43.7847 82.9972" fill="#FAB133"/>
<path fill-rule="evenodd" clip-rule="evenodd" d="M87.5622 67.2487C87.1186 67.5739 87.6414 68.452 86.9621 68.3091C86.383 68.1869 86.5922 67.4807 86.7376 67.0325C87.6401 64.2572 89.4191 62.2035 91.995 60.8586C92.3852 60.6548 92.9514 60.3437 93.3122 60.9207C93.6328 61.4323 93.137 61.7433 92.8541 62.0635C91.6682 63.4073 90.5432 64.7792 90.2471 66.6311C90.173 67.0963 89.7956 67.264 89.4112 67.4214C89.277 67.4765 89.142 67.5664 89.0467 67.6745C88.2941 68.5303 87.7263 68.6206 87.5622 67.2487" fill="#FAB133"/>
<path fill-rule="evenodd" clip-rule="evenodd" d="M64.3404 17.4531C64.2161 18.8353 63.0344 19.5983 62.392 20.6744C61.9161 21.4713 61.528 22.3755 60.7675 23.0084C60.5782 23.1658 60.5024 23.5129 60.1901 23.3373C59.9416 23.1973 59.8911 22.914 60.0588 22.6476C61.069 21.0459 62.0515 19.4247 63.2585 17.958C63.5435 17.6118 63.9929 17.6213 64.3727 17.4805L64.3404 17.4531Z" fill="#FAB133"/>
<path fill-rule="evenodd" clip-rule="evenodd" d="M64.3708 17.4795C64.2295 17.1734 64.0655 16.8888 64.3223 16.5396C65.7774 14.5593 67.2022 12.5557 68.8889 10.7584C69.0193 10.6192 69.0914 10.2895 69.3863 10.4958C69.5731 10.6267 69.5267 10.8292 69.3988 10.9912C67.7498 13.076 66.1498 15.1963 64.652 17.3933C64.6098 17.4551 64.4457 17.4343 64.3385 17.4522L64.3708 17.4795Z" fill="#FAB133"/>
<path fill-rule="evenodd" clip-rule="evenodd" d="M58.3748 29.094C58.3723 29.1288 58.3674 29.1615 58.3607 29.1909C58.1615 29.695 57.7266 30.103 57.7639 30.7052C57.7771 30.9198 57.8057 31.2246 57.4789 31.1965C57.1869 31.1712 57.2262 30.8999 57.2519 30.6688C57.481 28.6139 58.1793 26.6924 58.9576 24.8C59.0914 24.4752 59.4828 24.1265 59.8403 24.293C60.2636 24.4901 59.9438 24.9085 59.7939 25.1537C59.0479 26.3735 58.7228 27.7358 58.3748 29.094" fill="#FAB133"/>
<path fill-rule="evenodd" clip-rule="evenodd" d="M69.9969 12.4432C69.9878 12.4788 69.9774 12.5136 69.9654 12.5476C70.4418 12.0634 71.2706 11.9201 71.3509 11.0271C71.3642 10.8796 71.7395 10.3403 72.1189 10.6729C72.4796 10.9889 72.0944 11.3228 71.8857 11.5204C70.9421 12.4138 70.1932 13.4232 69.7645 14.7785C69.4021 14.3552 68.8608 14.0789 69.5815 13.5649C69.9687 13.2886 69.8138 12.8011 69.9969 12.4432" fill="#FAB133"/>
<path fill-rule="evenodd" clip-rule="evenodd" d="M65.2238 22.2894C65.3613 22.086 65.4989 21.8822 65.636 21.6788C65.8012 21.5488 65.9665 21.4191 66.1313 21.2891C66.1897 21.3292 66.2473 21.3694 66.3053 21.4096C65.9255 22.0876 65.5452 22.7653 65.1654 23.4433C65.0842 23.4168 65.0031 23.3899 64.9219 23.363C65.0225 23.0055 65.1232 22.6472 65.2238 22.2894" fill="#FAB133"/>
<path fill-rule="evenodd" clip-rule="evenodd" d="M61.4015 29.9993C61.1804 29.221 61.7474 28.7045 62.0448 28.1043C62.3364 27.5157 62.676 26.9507 62.995 26.375C63.1076 26.6678 63.0811 26.9271 62.9179 27.2138C62.3948 28.1325 61.9044 29.0694 61.4015 29.9993" fill="#FAB133"/>
</svg>
