<svg width="50" height="48" viewBox="0 0 50 48" fill="none" xmlns="http://www.w3.org/2000/svg">
<path fill-rule="evenodd" clip-rule="evenodd" d="M23.5866 13.9922H23.963C24.0303 14.1337 24.0545 14.2929 24.2041 14.373C24.9392 14.3935 24.7075 14.3375 25.5505 15.1833H27.2566C27.5113 15.2987 27.5842 15.6556 27.919 15.5969C28.1579 15.9248 28.7431 15.9258 28.7477 16.4873C28.7485 16.5672 28.8956 16.6458 28.9748 16.725C28.8451 17.0866 28.5412 17.3077 28.287 17.5794C28.203 17.7144 27.9298 17.478 27.9219 17.7295C27.9143 17.9728 27.6732 17.8402 27.5884 17.9836C27.5293 18.0837 27.3355 18.1039 27.1992 18.1611C27.145 18.114 27.0957 18.0711 27.0478 18.0297C26.9835 18.2794 26.7454 18.3179 26.5654 18.4192C26.4358 18.4379 26.4168 18.237 26.2161 18.3199C26.135 18.4209 26.0108 18.576 25.8888 18.7276C25.7547 18.6186 25.674 18.4929 25.5634 18.5605C25.2747 18.7362 24.9994 18.9339 24.7215 19.1264C24.4487 19.3153 24.0417 19.4316 23.7082 19.3887C23.4478 19.355 23.2563 19.6665 22.9561 19.4198V19.9513C22.8082 20.1061 22.5612 19.9424 22.4502 20.2328C22.3898 19.8245 21.8741 20.0415 21.8236 19.6537C21.6114 19.754 21.3934 19.898 21.2236 19.5803C21.1829 19.5107 21.2803 19.5026 21.3032 19.4437C21.2973 19.3128 21.1847 19.3808 21.1171 19.3552C20.9803 19.2184 21.04 18.947 21.3276 18.415C20.6963 18.0164 20.4397 17.3161 20.0312 16.7634C20.0596 16.3217 20.3248 16.0463 20.7133 15.8765C20.8272 15.8264 20.9593 15.8299 21.0811 15.7974C21.405 15.7106 21.7243 15.5844 22.0765 15.5908C22.7029 15.6024 22.8801 15.4436 23.0771 14.8404C23.174 14.5429 23.2006 14.1997 23.5866 13.9922" fill="#FAB133"/>
<path fill-rule="evenodd" clip-rule="evenodd" d="M41.4965 39.0457C41.1194 39.2799 40.7472 39.3479 40.5167 39.6509C40.4292 39.7662 40.3069 39.8077 40.1886 39.8335C39.7535 39.9284 39.4648 40.3391 38.9962 40.3704C38.9124 40.3759 38.8375 40.5183 38.7583 40.5972C38.2764 40.5521 37.8263 40.8368 37.3387 40.7365C37.2127 40.7104 37.0722 40.791 36.9564 40.6867C36.6438 40.4057 36.2553 40.3108 35.857 40.2647C35.4946 40.2228 35.2974 39.9622 35.0664 39.7384C35.0235 39.5961 35.1497 39.3474 34.8125 39.3851V38.7654C35.1717 38.3084 35.6841 38.1193 36.2871 38.033C36.862 37.951 37.4297 37.7796 37.9816 37.5923C38.2249 37.51 38.4231 37.3406 38.5712 37.0552C38.9555 36.3129 39.2415 35.5394 39.4902 34.7486C39.6778 34.1528 39.6657 34.1491 40.174 33.8789C40.5401 33.9704 40.3927 34.3014 40.4432 34.5058C40.5825 34.3665 40.7166 34.2322 40.8428 34.1059C41.0274 34.2432 41.1199 34.3569 41.1384 34.5282C41.344 34.5366 41.5606 34.651 41.727 34.3857C41.8409 34.6409 41.6615 34.95 42.0418 35.0848C42.1283 34.9675 42.2422 34.8127 42.3598 34.6537C42.5277 34.8462 42.3798 35.0461 42.4919 35.197C42.6199 35.2771 42.6933 35.1901 42.7705 35.1053C42.8016 35.1252 42.8457 35.1378 42.8619 35.1662C43.2995 35.9281 43.1876 36.6713 42.7653 37.3929C42.555 37.7528 42.2745 38.0611 41.96 38.3345C41.7265 38.5372 41.5739 38.7864 41.4965 39.0457" fill="#FAB133"/>
<path fill-rule="evenodd" clip-rule="evenodd" d="M33.1491 29.1542C32.9763 29.1715 32.8119 29.2489 32.7263 29.0381C32.519 29.1902 32.3667 29.4949 32.0655 29.2136C31.9903 29.1433 31.8998 29.1517 31.8394 29.2348C31.7401 29.3709 31.5885 29.2701 31.4659 29.3324C31.2821 29.9169 30.8152 30.279 30.3623 30.6458C30.3061 30.6914 30.2191 30.7745 30.154 30.7752C29.5565 30.7804 28.9575 30.8314 28.3609 30.7508C28.1857 30.526 27.7987 30.8134 27.6737 30.4666C27.4279 30.4627 27.2147 30.3754 26.998 30.2583C26.7742 30.1373 26.5762 29.9689 26.3568 29.8622C26.0189 29.6975 25.837 29.4266 25.6688 29.1295C25.5572 28.9321 25.4738 28.7186 25.375 28.5061C25.4891 28.287 25.5776 28.0479 25.7899 27.878C25.9116 27.7802 26.0245 27.7252 26.1818 27.6821C26.5856 27.5714 26.9381 27.349 27.278 27.0855C28.0824 26.4621 28.8485 25.7945 29.6164 25.129C29.7665 24.9986 29.9507 24.9606 30.1102 24.8672C30.2371 24.9616 30.3892 25.0286 30.3438 25.2219C30.5576 25.3538 30.7957 25.2015 30.9961 25.3173C31.0131 25.5086 30.7883 25.3205 30.7841 25.5084C30.951 25.6079 31.1687 25.5121 31.3681 25.5552C31.4588 25.6987 31.6422 25.7608 31.7001 25.9508C31.7477 26.1066 31.9567 26.3016 31.9136 26.3793C31.8007 26.5831 32.0011 26.7032 31.9676 26.8718C31.9338 27.0416 31.9994 27.261 31.9136 27.3828C31.8145 27.5238 32.0356 27.6872 31.8103 27.7851C32.0556 27.9409 32.2757 28.1785 32.522 28.2098C32.7914 28.2443 32.7981 28.69 33.1491 28.477V29.1542Z" fill="#FAB133"/>
<path fill-rule="evenodd" clip-rule="evenodd" d="M15.647 34.7C15.3233 34.858 15.189 35.2667 14.7845 35.3779C14.6496 34.9517 15.3408 34.8785 15.1269 34.4752C14.9356 34.3665 14.748 34.2193 14.5345 34.1508C14.3452 34.0902 14.2752 33.9933 14.197 33.82C14.0841 33.5685 13.9348 33.3208 13.6703 33.1552C13.6703 33.0018 13.6542 32.846 13.6737 32.6952C13.7173 32.3555 13.8017 32.0405 14.0701 31.7831C14.7381 31.1434 15.4806 30.6408 16.3752 30.3699C16.5894 30.305 16.7814 30.1663 16.9964 30.0546C17.0272 29.7627 17.2069 29.4844 17.1874 29.142C17.1788 28.9944 17.2964 28.7543 17.5523 28.704C17.6844 28.6781 17.8017 28.5792 17.9728 28.4883V29.3644C18.1873 29.1531 18.3352 29.0069 18.473 28.8711C19.2741 29.3476 19.8394 29.9427 20.003 30.8607C19.9084 30.8942 19.8307 30.9216 19.7294 30.9575V31.5161C19.3759 31.7829 19.3431 32.1977 19.2043 32.5352C19.0308 32.9567 18.8304 33.3341 18.5205 33.663C18.2523 33.9477 17.9218 34.1772 17.7541 34.5533C17.7115 34.6487 17.6149 34.753 17.5197 34.7865C17.1532 34.9155 16.9133 35.1851 16.6868 35.514C16.6451 35.3994 16.6168 35.3217 16.5615 35.1699C16.4718 35.4588 16.4186 35.6732 16.1343 35.8142C15.7873 35.9863 15.6652 35.7849 15.4843 35.6192C15.3983 35.7119 15.3278 35.8044 15.1961 35.7334C15.1809 35.6962 15.1422 35.6491 15.153 35.621C15.2469 35.3801 15.3652 35.1546 15.576 34.9897C15.665 34.9199 15.7377 34.8371 15.647 34.7" fill="#FAB133"/>
<path fill-rule="evenodd" clip-rule="evenodd" d="M26.9301 6.1735C26.8453 6.13948 26.8369 6.04334 26.725 6.09363C26.6865 6.4131 26.7974 6.77793 26.5071 7.10948C26.3929 7.15164 26.1368 7.08976 26.0661 7.31704C26.0094 7.49946 25.9492 7.63726 25.7707 7.66437C25.5644 7.66092 25.7205 7.39198 25.5311 7.3942C25.3463 7.39519 25.2962 7.57809 25.1722 7.66092C25.1104 7.62197 25.0753 7.54728 25.1076 7.49625C25.2016 7.34835 25.3046 7.2108 25.2048 7.02592C25.0598 6.90094 24.9903 7.08483 24.8828 7.10579C24.8064 7.0592 24.8155 6.97193 24.8399 6.92559C25.1032 6.42272 25.207 5.86783 25.4027 5.34499C25.01 5.09453 24.6023 4.92863 24.2197 4.73907C23.7883 4.52535 23.4955 4.20119 23.1257 3.88049H22.5469C22.544 3.54105 22.9327 3.45156 22.8533 3.07441C22.6542 2.93661 22.6029 3.44146 22.3554 3.36134C22.2928 3.32338 22.2713 3.26668 22.2854 3.1597C22.6527 2.9233 23.1237 2.89963 23.5312 2.7012C23.9651 2.49019 24.4657 2.4648 24.9363 2.35904C25.4256 2.2491 25.9016 2.35017 26.4016 2.26562C26.755 1.99421 26.6937 1.5219 26.8463 1.13834C27.0057 0.738505 27.1815 0.361595 27.5138 0.0699773C27.6388 -0.0394719 27.7554 0.00909 27.8961 0.0211689C27.9181 0.223058 27.5611 0.251407 27.6896 0.517388C27.8629 0.433329 28.0374 0.349023 28.2028 0.268662C28.3438 0.27729 28.332 0.371949 28.3305 0.460198C28.9805 0.608349 29.0929 0.67959 29.3251 1.35453C29.3759 1.50169 29.4151 1.69914 29.4085 1.88205C29.3996 2.12782 29.4062 2.37408 29.4062 2.61664C29.4555 2.71599 29.5652 2.66668 29.6547 2.7293V3.73677C29.1457 3.91155 29.0293 4.45312 28.7367 4.84975C28.6085 5.02379 28.5141 5.2242 28.1471 5.2698C28.3233 5.07457 28.4811 4.96241 28.5454 4.8108C28.6075 4.66413 28.7779 4.55 28.7286 4.37079C28.6896 4.29881 28.6598 4.29511 28.626 4.34269C28.4328 4.6173 28.2866 4.93874 27.9272 5.04868C27.9422 5.29864 27.8555 5.25871 27.7317 5.1145C27.5905 5.21113 27.6794 5.35435 27.6607 5.47416C27.6464 5.56339 27.6558 5.64252 27.5239 5.65016C27.2027 5.66865 27.1342 5.98714 26.9301 6.1735" fill="#FAB133"/>
<path fill-rule="evenodd" clip-rule="evenodd" d="M14.4849 15.5959C14.5142 15.871 14.4696 16.05 14.2381 16.136C14.0582 16.1338 14.0079 15.9509 13.8839 15.8678C13.7259 16.033 13.5686 16.0596 13.3761 15.9028C13.2174 15.7739 13.081 15.5952 13.0635 15.431C13.0293 15.1046 12.8259 14.9239 12.6178 14.7403C12.2234 14.3917 11.9547 13.9702 11.759 13.4836C11.6631 13.2447 11.6567 13.0791 11.7824 12.8328C11.9984 12.4103 12.3077 12.1796 12.7542 12.1014C13.0463 12.0501 13.3194 11.8892 13.6182 11.9759C13.6862 11.8579 13.79 11.8182 13.8213 11.691C13.9852 11.0242 14.2515 10.3949 14.5783 9.79165C14.8021 9.37801 14.9954 9.35213 15.412 9.58286C15.6718 9.72706 15.9314 9.84342 16.1594 10.0552C16.474 10.3475 16.6046 10.5048 16.7801 10.9332C16.9524 11.3548 17.0523 11.7778 17.0476 12.2335C17.0456 12.4418 16.9554 12.678 17.1721 12.8545C17.2051 12.8811 17.198 12.9923 17.1733 13.0487C17.0042 13.4343 17.0833 13.8787 16.8472 14.2569C16.5832 14.6799 16.33 15.1108 15.9302 15.411C15.7968 15.5114 15.6203 15.6196 15.4061 15.6018C15.1194 15.5782 14.829 15.5959 14.4849 15.5959" fill="#FAB133"/>
<path fill-rule="evenodd" clip-rule="evenodd" d="M7.35956 23.1615C7.35956 23.3215 7.31199 23.4802 7.3677 23.5372C7.64058 23.8155 7.28561 24.0435 7.33343 24.2957C7.01864 24.5935 6.92448 25.0305 6.66441 25.3594C6.51873 25.5438 6.36737 25.7264 6.06096 25.6961C5.89383 25.6793 5.69761 25.7858 5.55834 25.934C5.42202 25.8334 5.27978 25.7447 5.1023 25.8539C5.0843 25.9633 5.26327 25.9963 5.19153 26.1576C4.94922 26.2369 4.67806 26.3237 4.40838 26.4144C4.13377 26.5071 3.77634 26.5288 3.60822 26.7179C3.41175 26.9382 3.16303 27.0815 2.95078 27.3189C2.78414 27.205 2.58225 27.1552 2.3673 27.1283C2.46787 26.9525 2.70649 26.906 2.62589 26.621C2.50978 26.7147 2.40748 26.7972 2.30617 26.8791C2.23468 26.8359 2.22457 26.7386 2.25539 26.7055C2.37001 26.5823 2.42671 26.4529 2.34857 26.2404C1.96697 26.231 1.57996 26.0794 1.19171 25.8943C1.07683 25.6899 1.31693 25.5211 1.31989 25.3453C1.1572 25.2196 1.07856 25.2968 0.997705 25.3885C0.773384 25.3111 0.694009 25.1087 0.790146 24.9425C0.922028 24.714 1.02753 24.4628 1.31866 24.3267C2.16295 23.9318 2.96828 23.4558 3.81479 23.094C4.18726 22.4609 4.11873 21.6339 4.73352 21.1133H5.13212C5.19696 21.309 5.33722 21.3413 5.53763 21.4C5.89038 21.5033 6.27616 21.6724 6.40953 22.07C6.50024 22.3416 6.72358 22.5115 6.835 22.7669C6.91487 22.9498 7.0783 23.1305 7.35956 23.1615" fill="#FAB133"/>
<path fill-rule="evenodd" clip-rule="evenodd" d="M24.6462 44.6328C24.554 44.5645 24.5279 44.4874 24.5037 44.4923C24.293 44.7129 24.1172 44.8973 23.8847 45.1411C23.866 45.2624 24.1433 45.095 24.1537 45.2552C23.7452 45.4931 23.1938 45.5809 23.1408 46.2314C23.1568 46.2477 23.2202 46.311 23.3264 46.4175C23.4405 46.2625 23.5547 46.1074 23.6713 45.9492C23.812 46.1005 23.7689 46.1838 23.6794 46.2728C23.461 46.4902 23.2249 46.6448 22.897 46.6628C22.6692 46.6751 22.4663 46.8649 22.2085 46.77C22.175 46.8669 22.1476 46.9448 22.12 47.0244C22.0337 47.0767 22.0286 46.969 21.9329 46.9401C21.9157 47.1615 21.6773 47.1696 21.5604 47.3136C21.3445 47.2253 21.1798 46.9714 20.9535 47.0082C20.8461 47.0257 20.6829 46.7907 20.6099 47.0764C20.4926 46.9258 20.3851 46.7875 20.2954 46.6722H19.7439C19.4141 46.5174 19.3197 46.2267 19.1915 45.9622C19.2332 45.8925 19.2728 45.8266 19.3108 45.763L19.0547 45.5069C19.0648 45.3161 19.1954 45.1695 19.2943 45.0149C19.3934 44.8598 19.5504 44.8825 19.7018 44.9437C19.7099 45.0603 19.5137 45.1268 19.6394 45.29C19.9404 45.0876 20.3082 45.0363 20.6318 44.8796C20.8589 44.2771 20.8406 43.5903 21.3314 43.0769C21.4456 42.9575 21.5306 42.7056 21.485 42.4737C21.4601 42.3482 21.5767 42.3519 21.6778 42.3524C21.835 42.5375 21.6928 42.7727 21.765 42.9733C22.2068 42.7833 22.3505 42.5175 22.3369 42.0548C22.3327 41.9109 22.4636 41.7642 22.3976 41.5749C22.2822 41.5515 22.3051 41.6442 22.2825 41.7124C22.2635 41.7701 22.207 41.815 22.1678 41.8663C22.1079 41.9444 22.0325 41.971 21.9386 41.935C21.965 41.2586 22.1592 40.9766 22.7631 40.7422C22.9118 40.8864 22.7538 41.0885 22.8635 41.2517C22.9976 41.2313 23.0437 41.0949 23.162 41.0126C23.2379 41.1526 23.2727 41.3244 23.4322 41.4095C23.5638 41.4593 23.6212 41.34 23.7282 41.2586C24.1944 41.4519 24.5641 41.7161 24.5804 42.3078C24.5861 42.5121 24.8232 42.732 24.6935 42.9144C24.5336 43.1405 24.7732 43.2871 24.7157 43.4866C24.6361 43.7639 24.91 44.001 24.8525 44.3035C24.8234 44.4561 24.7335 44.5285 24.6462 44.6328" fill="#FAB133"/>
<path fill-rule="evenodd" clip-rule="evenodd" d="M39.167 11.9648H39.5543C39.7049 12.1066 39.557 12.3067 39.6497 12.4685C39.8816 12.5939 39.9327 12.3422 40.0702 12.2565C40.0981 12.271 40.1333 12.2823 40.1595 12.304C40.3123 12.431 40.4 12.606 40.5691 12.7362C41.1201 13.1609 41.2261 13.8102 40.9014 14.5088C40.7528 14.8293 40.612 15.186 40.3663 15.4189C40.1636 15.6107 40.2127 15.8604 40.0559 16.0428C39.9031 16.2205 39.7096 16.3455 39.5991 16.5896C39.47 16.8738 39.065 16.9399 38.8673 17.2088C38.5088 17.1272 38.4541 17.4311 38.3143 17.6355C38.2522 17.7265 38.1588 17.7957 38.0612 17.8936C37.8699 17.8561 37.6899 17.739 37.4666 17.7304C37.2763 17.7228 37.0966 17.4844 36.893 17.7171C36.6043 17.4634 36.2927 17.7923 36.0282 17.6974C35.7371 17.5933 35.4021 17.6239 35.1428 17.391C35.0526 17.3101 34.8487 17.3439 34.6973 17.3461C34.5038 17.3488 34.4326 17.2258 34.4092 17.1686C34.3219 16.9253 34.6547 16.9179 34.4807 16.7224C34.4094 16.596 34.2435 16.7348 34.1353 16.6332C34.0774 16.5341 34.1094 16.4266 34.1195 16.3209C34.3342 16.2284 34.5334 16.1306 34.7831 16.1224C35.1416 16.1108 35.4361 15.8703 35.7657 15.7458C36.4443 15.4899 37.0692 15.1448 37.5844 14.6148C37.7691 14.4247 37.8968 14.214 38.0079 13.981C38.2404 13.4947 38.4788 13.011 38.7213 12.5296C38.8283 12.3176 38.9508 12.113 39.167 11.9648" fill="#FAB133"/>
<path fill-rule="evenodd" clip-rule="evenodd" d="M0.161875 10.8982C0.256781 10.9877 0.351193 11.0769 0.443387 11.1639C0.935415 11.1462 1.05522 10.7133 1.15604 10.3995C1.4479 9.4899 1.81027 8.6074 2.11668 7.7042C2.20468 7.44487 2.27888 7.38965 2.86828 7.10938C2.93508 7.41948 3.10986 7.54397 3.45225 7.55802C3.66819 7.56665 3.93713 7.77371 4.06507 7.9687C4.16984 8.12844 4.41215 8.29581 4.3769 8.42252C4.32193 8.61997 4.63549 8.74692 4.42596 8.93846C4.39613 8.96607 4.56573 9.07453 4.53886 9.20345C4.4972 9.40312 4.81519 9.5742 4.65915 9.74183C4.46565 9.94963 4.76614 10.0805 4.67197 10.2462C4.66236 10.2632 4.66482 10.2923 4.67148 10.3125C4.75159 10.557 4.23146 10.5753 4.46293 10.9201C4.54428 11.0414 4.32218 11.2591 4.22357 11.4294C4.10081 11.6417 3.94699 11.813 3.78307 11.9845C3.63344 12.1416 3.48036 12.2924 3.23705 12.3223C3.03122 12.0356 2.81257 12.5062 2.58011 12.3804C2.52415 12.8155 1.98381 12.7832 1.83788 13.1705C1.80189 13.2767 1.9668 13.3127 1.98356 13.4269C1.93796 13.7197 1.69318 13.7988 1.49573 13.7039C1.18118 13.5528 0.86023 13.6147 0.532869 13.5723C0.504274 13.2841 0.42268 13.0191 0.209698 12.8291C0.0884161 12.7204 0.0442913 12.5547 0.108383 12.4766C0.410848 12.1073 0.11849 11.7868 0.0472494 11.4578C-0.016596 11.1622 -0.0461769 11.1686 0.161875 10.8982" fill="#FAB133"/>
<path fill-rule="evenodd" clip-rule="evenodd" d="M42.2036 25.3414C42.3606 25.1843 42.5026 25.0424 42.6438 24.9009C43.6072 24.7458 44.5703 24.6046 45.5637 24.8666C45.8546 24.8 45.9902 24.5146 46.0673 24.2767C46.1681 23.9649 46.4284 23.7657 46.5199 23.4561C46.5879 23.2256 46.8985 23.284 46.9979 23.0977C47.2173 23.1881 47.3674 23.2717 47.2976 23.532C47.6077 23.5143 47.869 23.5103 48.0384 23.7753C48.1693 23.9799 48.5035 23.9562 48.5632 24.2878C48.6053 24.5205 48.7907 24.7273 48.9014 24.927C48.6039 25.3655 49.0291 25.7244 49.0079 26.1245C48.9172 26.3868 48.8329 26.6387 48.4407 26.6557C48.2198 26.6654 47.9876 26.8621 47.7973 27.0193C47.552 27.2225 47.3388 27.2247 47.0911 27.0164C47.0807 27.3447 46.7938 27.3999 46.5744 27.5301C46.5243 27.5022 46.4536 27.4268 46.3888 27.4315C45.951 27.4621 45.5462 27.2291 45.1402 27.2308C44.7231 27.2326 44.3326 27.1707 44.006 26.9811C43.6592 26.7802 43.2559 26.7393 42.9248 26.499C42.7851 26.3974 42.6584 26.3479 42.5992 26.161C42.5122 25.8852 42.1898 25.7217 42.2036 25.3414" fill="#FAB133"/>
</svg>
