<svg width="32" height="26" viewBox="0 0 32 26" fill="none" xmlns="http://www.w3.org/2000/svg">
<path d="M26.7189 0.802583C27.2656 0.282111 27.9931 -0.0056278 28.7479 8.34215e-05C29.5027 0.00579465 30.2258 0.30451 30.7646 0.833195C31.3033 1.36188 31.6156 2.07919 31.6356 2.83375C31.6555 3.58832 31.3816 4.32112 30.8715 4.87754L15.3867 24.2433C15.1204 24.5301 14.799 24.7602 14.4418 24.92C14.0845 25.0797 13.6988 25.1658 13.3075 25.173C12.9162 25.1803 12.5275 25.1086 12.1646 24.9621C11.8017 24.8157 11.472 24.5976 11.1953 24.3209L0.926405 14.052C0.640434 13.7855 0.411064 13.4642 0.251978 13.1072C0.0928915 12.7501 0.00734852 12.3647 0.000452979 11.9739C-0.00644256 11.583 0.0654508 11.1948 0.211843 10.8324C0.358234 10.47 0.576126 10.1407 0.85252 9.86436C1.12891 9.58796 1.45815 9.37007 1.82058 9.22368C2.18301 9.07729 2.57121 9.00539 2.96203 9.01229C3.35285 9.01919 3.73827 9.10473 4.09532 9.26381C4.45236 9.4229 4.7737 9.65227 5.04017 9.93824L13.1668 18.061L26.6452 0.887964C26.6695 0.858085 26.6954 0.829579 26.7228 0.802583H26.7189Z" fill="url(#paint0_linear_2359_13230)"/>
<defs>
<linearGradient id="paint0_linear_2359_13230" x1="0" y1="0" x2="24.5302" y2="30.8281" gradientUnits="userSpaceOnUse">
<stop stop-color="#FCCF31"/>
<stop offset="1" stop-color="#F55555"/>
</linearGradient>
</defs>
</svg>
