<svg width="12" height="12" viewBox="0 0 12 12" fill="none" xmlns="http://www.w3.org/2000/svg">
<path fill-rule="evenodd" clip-rule="evenodd" d="M0.268727 10.7534C0.107022 10.5677 0.0264193 10.3248 0.0446494 10.078C0.0628795 9.83127 0.178449 9.60092 0.365935 9.43765L8.55627 2.30516L2.9039 1.94362C2.65667 1.92775 2.42682 1.81438 2.26492 1.62846C2.10301 1.44254 2.0223 1.19929 2.04055 0.952224C2.05881 0.705162 2.17452 0.474523 2.36225 0.311046C2.54997 0.14757 2.79432 0.0646456 3.04155 0.0805167L10.9413 0.587653C11.0638 0.59536 11.1833 0.627136 11.293 0.68116C11.4027 0.735185 11.5005 0.810398 11.5807 0.90249C11.6608 0.994582 11.7219 1.10174 11.7603 1.21784C11.7988 1.33393 11.8138 1.45668 11.8046 1.57904L11.2214 9.47354C11.2031 9.7206 11.0874 9.95124 10.8997 10.1147C10.712 10.2782 10.4676 10.3611 10.2204 10.3452C9.97317 10.3294 9.74332 10.216 9.58141 10.0301C9.4195 9.84416 9.3388 9.60091 9.35705 9.35385L9.77568 3.70543L1.58535 10.8379C1.39787 11.0012 1.15382 11.084 0.906907 11.0682C0.659992 11.0523 0.430431 10.9391 0.268727 10.7534Z" fill="url(#paint0_linear_2359_13184)"/>
<defs>
<linearGradient id="paint0_linear_2359_13184" x1="-4" y1="5.85156" x2="15.455" y2="8.59787" gradientUnits="userSpaceOnUse">
<stop stop-color="#FCCF31"/>
<stop offset="1" stop-color="#F55555"/>
</linearGradient>
</defs>
</svg>
